<svg width="446" height="174" viewBox="0 0 446 174" fill="none" xmlns="http://www.w3.org/2000/svg">
<path d="M89.9633 122.585C87.4959 118.241 86.1674 111.252 86.1674 101.997C86.1674 89.3415 82.9408 78.953 74.5898 72.531H76.298C82.751 72.531 86.3571 68.9422 86.3571 62.5202V57.987V14.544V10.0108C86.3571 3.58877 82.751 0 76.298 0H71.7429H21.4469H16.8918C10.4388 0 6.83265 3.58877 6.83265 10.0108V14.544V101.997C6.83265 107.663 6.83265 120.885 0 125.985C6.83265 127.307 19.1694 127.685 25.6224 123.907C31.5061 120.696 34.9225 117.107 34.9225 101.997V72.7198H37.2C55.6102 78.0086 56.749 92.3636 57.8878 104.641C58.2673 117.674 61.6837 121.074 67.1878 124.096C69.2755 125.229 71.7429 125.985 74.5898 126.363C78.0061 126.929 81.4224 127.118 84.8388 126.929C87.8755 126.74 90.7225 126.551 93 126.174C91.6714 125.04 90.7225 123.907 89.9633 122.585ZM41.9449 47.5984H37.0102C35.8714 47.5984 35.1122 46.8429 35.1122 45.7096V40.7987V32.6767V27.7658C35.1122 26.6325 35.8714 25.8769 37.0102 25.8769H41.9449H51.2449H56.1796C57.3184 25.8769 58.0775 26.6325 58.0775 27.7658V32.6767V40.7987V45.7096C58.0775 46.8429 57.3184 47.5984 56.1796 47.5984H51.2449H41.9449Z" fill="#31302E"/>
<path d="M184.577 102.066V14.5539V10.0176C184.577 3.59122 180.988 0 174.565 0H170.031H120.347H115.813C109.39 0 105.801 3.59122 105.801 10.0176V14.5539V102.066C105.801 107.737 105.801 120.967 99 126.071C105.801 127.394 118.08 127.772 124.503 123.992C130.359 120.778 133.76 117.187 133.76 102.066V76.1716C133.76 73.9035 134.704 72.7694 136.782 72.7694H153.218C156.24 72.7694 156.24 74.2815 156.24 76.3606V102.066C156.24 117.187 159.641 120.778 165.497 123.992C172.109 127.583 184.388 127.205 191 126.071C184.577 120.967 184.577 107.737 184.577 102.066ZM135.649 47.6309C134.515 47.6309 133.76 46.8748 133.76 45.7408V40.8265V32.699V27.7847C133.76 26.6506 134.515 25.8946 135.649 25.8946H140.561H149.817H154.729C155.862 25.8946 156.618 26.6506 156.618 27.7847V32.699V40.8265V45.7408C156.618 46.8748 155.862 47.6309 154.729 47.6309H149.817H140.561H135.649Z" fill="#31302E"/>
<path d="M272.591 2.87072C266.757 6.083 263.369 9.67319 263.369 24.7898L263.181 40.6622V45.5751C263.181 46.7088 262.428 47.4647 261.298 47.4647H256.593H240.783H235.89C234.76 47.4647 234.008 46.7088 234.008 45.5751V40.6622V24.7898C234.008 19.1211 234.008 5.89404 240.783 0.792193C234.008 -0.341551 221.586 -0.719466 215.186 2.87072C209.352 6.083 205.964 9.67319 205.964 24.7898L205.776 102.073C205.776 107.742 205.776 120.969 199 126.071C205.776 127.394 218.01 127.772 224.409 123.992C230.243 120.78 233.631 117.19 233.631 102.073L233.819 79.3985V74.4856C233.819 73.3518 234.572 72.596 235.702 72.596H240.595H256.405H261.298C262.428 72.596 263.181 73.3518 263.181 74.4856V79.3985V102.073C263.181 107.742 263.181 120.969 256.405 126.071C263.181 127.394 275.414 127.772 281.814 123.992C287.648 120.78 291.036 117.19 291.036 102.073L291.224 24.7898C291.224 19.1211 291.224 5.89404 298 0.792193C291.413 -0.341551 279.179 -0.719466 272.591 2.87072Z" fill="#31302E"/>
<path d="M321.227 2.87072C315.309 6.083 311.873 9.67319 311.873 24.7898C311.873 54.2671 311.873 72.0291 311.873 102.073C311.873 107.742 311.873 120.969 305 126.071C311.873 127.394 324.282 127.772 330.773 123.992C336.691 120.78 340.127 117.19 340.127 102.073C340.127 72.407 340.127 54.834 340.127 24.7898C340.127 19.1211 340.127 5.89404 347 0.792193C340.318 -0.341551 327.909 -0.719466 321.227 2.87072Z" fill="#31302E"/>
<path d="M407.773 0H362.89C359.276 0 355.663 0.377976 353 0.944941C359.847 6.04762 359.847 19.2768 359.847 24.9464V102.054C359.847 107.723 359.847 120.952 353 126.055C355.663 126.622 359.086 127 362.89 127H407.773C426.411 127 446 115.661 446 95.628V31.372C446 11.3393 426.411 0 407.773 0ZM417.663 90.7143C417.663 96.5729 414.62 101.109 406.822 101.109H394.841H389.896C388.755 101.109 387.994 100.353 387.994 99.2188V94.3051V32.6949V27.7813C387.994 26.6473 388.755 25.8914 389.896 25.8914H394.841H406.822C414.429 25.8914 417.663 29.6711 417.663 36.2857V90.7143Z" fill="#31302E"/>
<path d="M45.2615 155.167C45.1245 155.03 44.9875 154.893 44.4395 154.619C44.0285 154.345 43.4806 154.071 42.7956 153.797C42.1106 153.523 41.4256 153.249 40.6036 152.975C39.7817 152.701 39.0967 152.701 38.4117 152.701C36.2198 152.701 35.2608 153.386 35.2608 154.893C35.2608 155.304 35.3978 155.715 35.6718 155.989C35.6718 156.263 36.0828 156.537 36.4938 156.674C36.9047 156.948 37.5897 157.222 38.2747 157.359C38.9597 157.496 39.7817 157.77 40.6036 158.044C41.8366 158.318 42.9326 158.729 43.8916 159.14C44.8505 159.551 45.6725 160.099 46.4945 160.647C47.1795 161.195 47.7274 162.017 48.1384 162.839C48.5494 163.661 48.6864 164.757 48.6864 165.853C48.6864 167.36 48.4124 168.593 47.8644 169.552C47.3165 170.648 46.6315 171.47 45.6725 172.018C44.7135 172.703 43.7546 173.114 42.5216 173.388C41.2886 173.662 40.1927 173.799 38.9597 173.799C38.0007 173.799 37.0417 173.662 36.0828 173.525C35.1238 173.388 34.1648 173.114 33.2059 172.84C32.2469 172.566 31.2879 172.292 30.4659 171.881C29.644 171.47 28.685 171.059 28 170.511L30.6029 165.305C30.7399 165.442 31.0139 165.716 31.5619 165.99C32.1099 166.264 32.7949 166.675 33.6168 166.949C34.4388 167.223 35.2608 167.634 36.2198 167.908C37.1787 168.182 38.1377 168.319 39.2337 168.319C41.2886 168.319 42.3846 167.634 42.3846 166.401C42.3846 165.853 42.2476 165.579 41.9736 165.168C41.6996 164.894 41.1516 164.62 40.6036 164.346C40.0557 164.072 39.3707 163.798 38.5487 163.661C37.7267 163.524 36.9047 163.25 36.0828 162.976C34.8498 162.565 33.8908 162.154 32.9319 161.743C31.9729 161.332 31.2879 160.921 30.6029 160.373C29.9179 159.825 29.644 159.14 29.37 158.318C29.096 157.633 28.959 156.811 28.959 155.852C28.959 154.482 29.233 153.249 29.7809 152.291C30.3289 151.195 31.0139 150.373 31.8359 149.688C32.6579 149.003 33.7538 148.455 34.8498 148.044C35.9458 147.633 37.3157 147.359 38.5487 147.359C39.5077 147.359 40.3297 147.496 41.1516 147.633C41.9736 147.77 42.9326 148.044 43.6176 148.318C44.4395 148.592 45.1245 148.866 45.8095 149.277C46.4945 149.551 47.1795 149.962 47.7274 150.236L45.2615 155.167Z" fill="#31302E"/>
<path d="M89.7852 173.525V158.044L84.1684 169.278H81.0175L75.4006 158.044V173.525H69.3728V147.496H75.8116L82.5244 161.058L89.2372 147.496H95.6761V173.525H89.7852Z" fill="#31302E"/>
<path d="M129.377 173.799C127.459 173.799 125.678 173.388 124.171 172.703C122.527 171.881 121.294 170.922 120.061 169.689C118.965 168.456 118.006 167.086 117.458 165.442C116.774 163.798 116.5 162.291 116.5 160.51C116.5 158.866 116.774 157.222 117.458 155.578C118.143 153.934 118.965 152.564 120.198 151.332C121.294 150.099 122.664 149.14 124.308 148.455C125.952 147.77 127.596 147.359 129.514 147.359C131.432 147.359 133.213 147.77 134.72 148.455C136.364 149.277 137.597 150.236 138.83 151.469C139.926 152.838 140.748 154.208 141.433 155.852C141.981 157.496 142.392 159.003 142.392 160.647C142.392 162.291 142.118 163.935 141.433 165.579C140.748 167.223 139.926 168.593 138.693 169.826C137.46 171.059 136.227 172.018 134.583 172.703C132.939 173.388 131.295 173.799 129.377 173.799ZM122.664 160.647C122.664 161.606 122.801 162.565 123.075 163.524C123.349 164.483 123.76 165.305 124.308 165.99C124.856 166.675 125.541 167.36 126.5 167.771C127.322 168.182 128.281 168.456 129.377 168.456C130.473 168.456 131.569 168.182 132.391 167.771C133.213 167.36 133.898 166.675 134.446 165.99C134.994 165.305 135.405 164.346 135.679 163.524C135.953 162.565 136.09 161.606 136.09 160.647C136.09 159.688 135.953 158.729 135.679 157.77C135.405 156.811 134.994 155.989 134.309 155.304C133.761 154.619 133.076 154.071 132.117 153.523C131.158 152.975 130.473 152.838 129.377 152.838C128.281 152.838 127.185 153.112 126.363 153.523C125.541 153.934 124.856 154.619 124.308 155.304C123.76 155.989 123.349 156.811 123.075 157.77C122.801 158.729 122.664 159.688 122.664 160.647Z" fill="#31302E"/>
<path d="M162.941 173.525V147.496H168.969V158.729L178.422 147.496H185.135L175.408 159.14L185.82 173.525H178.97L171.572 163.113L168.832 165.99V173.662H162.941V173.525Z" fill="#31302E"/>
<path d="M223.22 168.319V173.525H204.999V147.496H222.946V152.838H211.027V157.907H221.302V162.702H211.027V168.182H223.22V168.319Z" fill="#31302E"/>
<path d="M285.416 155.167C285.279 155.03 285.142 154.893 284.594 154.619C284.183 154.345 283.635 154.071 282.95 153.797C282.265 153.523 281.58 153.249 280.758 152.975C279.936 152.701 279.251 152.701 278.429 152.701C276.237 152.701 275.278 153.386 275.278 154.893C275.278 155.304 275.415 155.715 275.689 155.989C275.963 156.263 276.237 156.537 276.648 156.811C277.059 157.085 277.607 157.222 278.292 157.496C278.977 157.633 279.799 157.907 280.621 158.181C281.854 158.455 282.95 158.866 284.046 159.277C285.005 159.688 285.827 160.236 286.649 160.784C287.334 161.332 287.882 162.154 288.293 162.976C288.703 163.798 288.84 164.894 288.84 165.99C288.84 167.497 288.566 168.73 288.018 169.689C287.471 170.648 286.786 171.47 285.827 172.155C284.868 172.84 283.909 173.251 282.676 173.525C281.443 173.799 280.347 173.936 279.114 173.936C278.155 173.936 277.196 173.799 276.237 173.662C275.278 173.525 274.319 173.251 273.36 172.977C272.401 172.703 271.442 172.429 270.62 172.018C269.798 171.607 268.839 171.196 268.154 170.648L270.757 165.442C270.894 165.579 271.168 165.853 271.716 166.127C272.264 166.401 272.949 166.812 273.771 167.086C274.593 167.36 275.415 167.771 276.374 168.045C277.333 168.319 278.292 168.456 279.388 168.456C281.443 168.456 282.539 167.771 282.539 166.538C282.539 165.99 282.402 165.716 282.128 165.305C281.854 165.031 281.306 164.757 280.758 164.483C280.21 164.209 279.525 163.935 278.703 163.798C277.881 163.661 277.059 163.387 276.237 163.113C275.004 162.702 274.045 162.291 273.086 161.88C272.127 161.469 271.442 160.921 270.894 160.373C270.346 159.825 269.935 159.14 269.661 158.455C269.387 157.77 269.25 156.811 269.25 155.852C269.25 154.482 269.524 153.249 270.072 152.29C270.62 151.195 271.305 150.373 272.127 149.688C272.949 149.003 274.045 148.455 275.141 148.044C276.237 147.633 277.47 147.496 278.84 147.496C279.799 147.496 280.621 147.633 281.443 147.77C282.265 147.907 283.224 148.181 283.909 148.455C284.731 148.729 285.416 149.003 286.101 149.414C286.786 149.688 287.471 150.099 288.018 150.373L285.416 155.167Z" fill="#31302E"/>
<path d="M331.857 147.633V173.662H325.83V162.976H315.555V173.662H309.527V147.633H315.555V157.633H325.967V147.633H331.857Z" fill="#31302E"/>
<path d="M365.422 173.799C363.504 173.799 361.723 173.388 360.216 172.703C358.572 171.881 357.339 170.922 356.106 169.689C355.01 168.456 354.051 167.086 353.503 165.442C352.818 163.798 352.544 162.291 352.544 160.51C352.544 158.866 352.818 157.222 353.503 155.578C354.188 153.934 355.01 152.564 356.243 151.332C357.339 150.099 358.709 149.14 360.353 148.455C361.997 147.77 363.641 147.359 365.559 147.359C367.477 147.359 369.257 147.77 370.764 148.455C372.408 149.277 373.641 150.236 374.874 151.469C375.97 152.701 376.929 154.071 377.477 155.715C378.025 157.359 378.436 158.866 378.436 160.51C378.436 162.154 378.162 163.798 377.477 165.442C376.792 167.086 375.97 168.456 374.737 169.689C373.504 170.922 372.271 171.881 370.627 172.566C368.983 173.251 367.203 173.799 365.422 173.799ZM358.572 160.647C358.572 161.606 358.709 162.565 358.983 163.524C359.257 164.483 359.668 165.305 360.216 165.99C360.764 166.675 361.449 167.36 362.408 167.771C363.23 168.182 364.189 168.456 365.285 168.456C366.381 168.456 367.477 168.182 368.299 167.771C369.12 167.36 369.805 166.675 370.353 165.99C370.901 165.305 371.312 164.346 371.586 163.524C371.86 162.565 371.997 161.606 371.997 160.647C371.997 159.688 371.86 158.729 371.586 157.77C371.312 156.811 370.901 155.989 370.216 155.304C369.668 154.619 368.983 154.071 368.025 153.523C367.066 152.975 366.518 152.838 365.422 152.838C364.326 152.838 363.23 153.112 362.408 153.523C361.586 153.934 360.901 154.619 360.353 155.304C359.805 155.989 359.394 156.811 359.12 157.77C358.709 158.729 358.572 159.688 358.572 160.647Z" fill="#31302E"/>
<path d="M398.986 173.525V147.496H410.082C411.315 147.496 412.411 147.77 413.507 148.318C414.603 148.866 415.425 149.551 416.11 150.373C416.795 151.195 417.48 152.153 417.891 153.249C418.302 154.345 418.576 155.304 418.576 156.4C418.576 157.496 418.439 158.592 418.028 159.688C417.617 160.784 417.069 161.743 416.384 162.565C415.699 163.387 414.74 164.072 413.781 164.483C412.822 165.031 411.589 165.168 410.356 165.168H405.15V173.525H398.986ZM405.013 159.962H409.945C410.63 159.962 411.315 159.688 411.726 159.003C412.274 158.455 412.548 157.496 412.548 156.4C412.548 155.852 412.411 155.304 412.274 154.893C412.137 154.482 411.863 154.071 411.589 153.797C411.315 153.523 411.041 153.249 410.63 153.112C410.356 152.975 409.945 152.975 409.671 152.975H405.013V159.962Z" fill="#31302E"/>
</svg>
